<?xml version="1.0" encoding="UTF-8" standalone="no"?>
<!DOCTYPE svg PUBLIC "-//W3C//DTD SVG 1.1//EN"
 "http://www.w3.org/Graphics/SVG/1.1/DTD/svg11.dtd">
<!-- Generated by graphviz version 2.44.1 (20200629.0846)
 -->
<!-- Title: dependencies Pages: 1 -->
<svg width="2166pt" height="284pt"
 viewBox="0.00 0.00 2166.00 284.00" xmlns="http://www.w3.org/2000/svg" xmlns:xlink="http://www.w3.org/1999/xlink">
<g id="graph0" class="graph" transform="scale(1 1) rotate(0) translate(4 280)">
<title>dependencies</title>
<polygon fill="white" stroke="transparent" points="-4,4 -4,-280 2162,-280 2162,4 -4,4"/>
<text text-anchor="start" x="1058.01" y="-42.4" font-family="sans-serif" font-weight="bold" font-size="14.00">Legend</text>
<polygon fill="#ffffb3" stroke="transparent" points="845,-10 845,-30 865,-30 865,-10 845,-10"/>
<text text-anchor="start" x="868.63" y="-15.4" font-family="sans-serif" font-size="14.00"> &#160;Declarations</text>
<polygon fill="#8dd3c7" stroke="transparent" points="958,-10 958,-30 978,-30 978,-10 958,-10"/>
<text text-anchor="start" x="981.73" y="-15.4" font-family="sans-serif" font-size="14.00"> &#160;Module</text>
<polygon fill="#80b1d3" stroke="transparent" points="1044,-10 1044,-30 1064,-30 1064,-10 1044,-10"/>
<text text-anchor="start" x="1067.78" y="-15.4" font-family="sans-serif" font-size="14.00"> &#160;Bootstrap</text>
<polygon fill="#fdb462" stroke="transparent" points="1141,-10 1141,-30 1161,-30 1161,-10 1141,-10"/>
<text text-anchor="start" x="1164.67" y="-15.4" font-family="sans-serif" font-size="14.00"> &#160;Providers</text>
<polygon fill="#fb8072" stroke="transparent" points="1237,-10 1237,-30 1257,-30 1257,-10 1237,-10"/>
<text text-anchor="start" x="1260.73" y="-15.4" font-family="sans-serif" font-size="14.00"> &#160;Exports</text>
<g id="clust1" class="cluster">
<title>cluster_AppModule</title>
<polygon fill="none" stroke="black" stroke-dasharray="1,5" points="8,-70 8,-268 2150,-268 2150,-70 8,-70"/>
</g>
<g id="clust14" class="cluster">
<title>cluster_AppModule_imports</title>
<polygon fill="none" stroke="black" points="1873,-78 1873,-130 2142,-130 2142,-78 1873,-78"/>
</g>
<g id="clust16" class="cluster">
<title>cluster_AppModule_bootstrap</title>
<polygon fill="none" stroke="black" points="1065,-208 1065,-260 1189,-260 1189,-208 1065,-208"/>
</g>
<g id="clust17" class="cluster">
<title>cluster_AppModule_providers</title>
<polygon fill="none" stroke="black" points="1731,-78 1731,-130 1865,-130 1865,-78 1731,-78"/>
</g>
<g id="clust2" class="cluster">
<title>cluster_AppModule_declarations</title>
<polygon fill="none" stroke="black" points="16,-78 16,-130 1723,-130 1723,-78 16,-78"/>
</g>
<!-- AppComponent -->
<g id="node1" class="node">
<title>AppComponent</title>
<polygon fill="#ffffb3" stroke="black" points="1714.94,-122 1609.06,-122 1609.06,-86 1714.94,-86 1714.94,-122"/>
<text text-anchor="middle" x="1662" y="-99.8" font-family="Times,serif" font-size="14.00">AppComponent</text>
</g>
<!-- AppModule -->
<g id="node12" class="node">
<title>AppModule</title>
<polygon fill="#8dd3c7" stroke="black" points="1168.66,-187 1165.66,-191 1144.66,-191 1141.66,-187 1085.34,-187 1085.34,-151 1168.66,-151 1168.66,-187"/>
<text text-anchor="middle" x="1127" y="-164.8" font-family="Times,serif" font-size="14.00">AppModule</text>
</g>
<!-- AppComponent&#45;&gt;AppModule -->
<g id="edge1" class="edge">
<title>AppComponent&#45;&gt;AppModule</title>
<path fill="none" stroke="black" d="M1662,-122.22C1662,-140.83 1662,-167 1662,-167 1662,-167 1178.98,-167 1178.98,-167"/>
<polygon fill="black" stroke="black" points="1178.98,-163.5 1168.98,-167 1178.98,-170.5 1178.98,-163.5"/>
</g>
<!-- CurrentTrainingComponent -->
<g id="node2" class="node">
<title>CurrentTrainingComponent</title>
<polygon fill="#ffffb3" stroke="black" points="1591.3,-122 1418.7,-122 1418.7,-86 1591.3,-86 1591.3,-122"/>
<text text-anchor="middle" x="1505" y="-99.8" font-family="Times,serif" font-size="14.00">CurrentTrainingComponent</text>
</g>
<!-- CurrentTrainingComponent&#45;&gt;AppModule -->
<g id="edge2" class="edge">
<title>CurrentTrainingComponent&#45;&gt;AppModule</title>
<path fill="none" stroke="black" d="M1505,-122.03C1505,-139.06 1505,-162 1505,-162 1505,-162 1178.9,-162 1178.9,-162"/>
<polygon fill="black" stroke="black" points="1178.9,-158.5 1168.9,-162 1178.9,-165.5 1178.9,-158.5"/>
</g>
<!-- HeaderComponent -->
<g id="node3" class="node">
<title>HeaderComponent</title>
<polygon fill="#ffffb3" stroke="black" points="1400.74,-122 1279.26,-122 1279.26,-86 1400.74,-86 1400.74,-122"/>
<text text-anchor="middle" x="1340" y="-99.8" font-family="Times,serif" font-size="14.00">HeaderComponent</text>
</g>
<!-- HeaderComponent&#45;&gt;AppModule -->
<g id="edge3" class="edge">
<title>HeaderComponent&#45;&gt;AppModule</title>
<path fill="none" stroke="black" d="M1340,-122.24C1340,-137.57 1340,-157 1340,-157 1340,-157 1178.83,-157 1178.83,-157"/>
<polygon fill="black" stroke="black" points="1178.83,-153.5 1168.83,-157 1178.83,-160.5 1178.83,-153.5"/>
</g>
<!-- LoginComponent -->
<g id="node4" class="node">
<title>LoginComponent</title>
<polygon fill="#ffffb3" stroke="black" points="1261.28,-122 1146.72,-122 1146.72,-86 1261.28,-86 1261.28,-122"/>
<text text-anchor="middle" x="1204" y="-99.8" font-family="Times,serif" font-size="14.00">LoginComponent</text>
</g>
<!-- LoginComponent&#45;&gt;AppModule -->
<g id="edge4" class="edge">
<title>LoginComponent&#45;&gt;AppModule</title>
<path fill="none" stroke="black" d="M1157.72,-122.11C1157.72,-122.11 1157.72,-140.99 1157.72,-140.99"/>
<polygon fill="black" stroke="black" points="1154.22,-140.99 1157.72,-150.99 1161.22,-140.99 1154.22,-140.99"/>
</g>
<!-- NewTrainingComponent -->
<g id="node5" class="node">
<title>NewTrainingComponent</title>
<polygon fill="#ffffb3" stroke="black" points="1128.97,-122 973.03,-122 973.03,-86 1128.97,-86 1128.97,-122"/>
<text text-anchor="middle" x="1051" y="-99.8" font-family="Times,serif" font-size="14.00">NewTrainingComponent</text>
</g>
<!-- NewTrainingComponent&#45;&gt;AppModule -->
<g id="edge5" class="edge">
<title>NewTrainingComponent&#45;&gt;AppModule</title>
<path fill="none" stroke="black" d="M1107.08,-122.11C1107.08,-122.11 1107.08,-140.99 1107.08,-140.99"/>
<polygon fill="black" stroke="black" points="1103.58,-140.99 1107.08,-150.99 1110.58,-140.99 1103.58,-140.99"/>
</g>
<!-- PastTrainingComponent -->
<g id="node6" class="node">
<title>PastTrainingComponent</title>
<polygon fill="#ffffb3" stroke="black" points="955.37,-122 802.63,-122 802.63,-86 955.37,-86 955.37,-122"/>
<text text-anchor="middle" x="879" y="-99.8" font-family="Times,serif" font-size="14.00">PastTrainingComponent</text>
</g>
<!-- PastTrainingComponent&#45;&gt;AppModule -->
<g id="edge6" class="edge">
<title>PastTrainingComponent&#45;&gt;AppModule</title>
<path fill="none" stroke="black" d="M879,-122.24C879,-137.57 879,-157 879,-157 879,-157 1075.21,-157 1075.21,-157"/>
<polygon fill="black" stroke="black" points="1075.21,-160.5 1085.21,-157 1075.21,-153.5 1075.21,-160.5"/>
</g>
<!-- SidenavListComponent -->
<g id="node7" class="node">
<title>SidenavListComponent</title>
<polygon fill="#ffffb3" stroke="black" points="784.21,-122 635.79,-122 635.79,-86 784.21,-86 784.21,-122"/>
<text text-anchor="middle" x="710" y="-99.8" font-family="Times,serif" font-size="14.00">SidenavListComponent</text>
</g>
<!-- SidenavListComponent&#45;&gt;AppModule -->
<g id="edge7" class="edge">
<title>SidenavListComponent&#45;&gt;AppModule</title>
<path fill="none" stroke="black" d="M710,-122.03C710,-139.06 710,-162 710,-162 710,-162 1075.11,-162 1075.11,-162"/>
<polygon fill="black" stroke="black" points="1075.11,-165.5 1085.11,-162 1075.11,-158.5 1075.11,-165.5"/>
</g>
<!-- SingupComponent -->
<g id="node8" class="node">
<title>SingupComponent</title>
<polygon fill="#ffffb3" stroke="black" points="617.51,-122 496.49,-122 496.49,-86 617.51,-86 617.51,-122"/>
<text text-anchor="middle" x="557" y="-99.8" font-family="Times,serif" font-size="14.00">SingupComponent</text>
</g>
<!-- SingupComponent&#45;&gt;AppModule -->
<g id="edge8" class="edge">
<title>SingupComponent&#45;&gt;AppModule</title>
<path fill="none" stroke="black" d="M557,-122.22C557,-140.83 557,-167 557,-167 557,-167 1075.09,-167 1075.09,-167"/>
<polygon fill="black" stroke="black" points="1075.09,-170.5 1085.09,-167 1075.09,-163.5 1075.09,-170.5"/>
</g>
<!-- StopTrainingComponent -->
<g id="node9" class="node">
<title>StopTrainingComponent</title>
<polygon fill="#ffffb3" stroke="black" points="478.71,-122 323.29,-122 323.29,-86 478.71,-86 478.71,-122"/>
<text text-anchor="middle" x="401" y="-99.8" font-family="Times,serif" font-size="14.00">StopTrainingComponent</text>
</g>
<!-- StopTrainingComponent&#45;&gt;AppModule -->
<g id="edge9" class="edge">
<title>StopTrainingComponent&#45;&gt;AppModule</title>
<path fill="none" stroke="black" d="M401,-122.22C401,-142.37 401,-172 401,-172 401,-172 1075.09,-172 1075.09,-172"/>
<polygon fill="black" stroke="black" points="1075.09,-175.5 1085.09,-172 1075.09,-168.5 1075.09,-175.5"/>
</g>
<!-- TrainingComponent -->
<g id="node10" class="node">
<title>TrainingComponent</title>
<polygon fill="#ffffb3" stroke="black" points="305.54,-122 176.46,-122 176.46,-86 305.54,-86 305.54,-122"/>
<text text-anchor="middle" x="241" y="-99.8" font-family="Times,serif" font-size="14.00">TrainingComponent</text>
</g>
<!-- TrainingComponent&#45;&gt;AppModule -->
<g id="edge10" class="edge">
<title>TrainingComponent&#45;&gt;AppModule</title>
<path fill="none" stroke="black" d="M241,-122.04C241,-143.66 241,-177 241,-177 241,-177 1075.16,-177 1075.16,-177"/>
<polygon fill="black" stroke="black" points="1075.16,-180.5 1085.16,-177 1075.16,-173.5 1075.16,-180.5"/>
</g>
<!-- WelcomeComponent -->
<g id="node11" class="node">
<title>WelcomeComponent</title>
<polygon fill="#ffffb3" stroke="black" points="158.47,-122 23.53,-122 23.53,-86 158.47,-86 158.47,-122"/>
<text text-anchor="middle" x="91" y="-99.8" font-family="Times,serif" font-size="14.00">WelcomeComponent</text>
</g>
<!-- WelcomeComponent&#45;&gt;AppModule -->
<g id="edge11" class="edge">
<title>WelcomeComponent&#45;&gt;AppModule</title>
<path fill="none" stroke="black" d="M91,-122.09C91,-145.13 91,-182 91,-182 91,-182 1075.1,-182 1075.1,-182"/>
<polygon fill="black" stroke="black" points="1075.1,-185.5 1085.1,-182 1075.1,-178.5 1075.1,-185.5"/>
</g>
<!-- AppComponent  -->
<g id="node15" class="node">
<title>AppComponent </title>
<polygon fill="#80b1d3" stroke="black" points="1181.44,-252 1072.56,-252 1072.56,-216 1181.44,-216 1181.44,-252"/>
<text text-anchor="middle" x="1127" y="-229.8" font-family="Times,serif" font-size="14.00">AppComponent </text>
</g>
<!-- AppModule&#45;&gt;AppComponent  -->
<g id="edge14" class="edge">
<title>AppModule&#45;&gt;AppComponent </title>
<path fill="none" stroke="black" stroke-dasharray="1,5" d="M1127,-187.11C1127,-187.11 1127,-205.99 1127,-205.99"/>
<polygon fill="black" stroke="black" points="1123.5,-205.99 1127,-215.99 1130.5,-205.99 1123.5,-205.99"/>
</g>
<!-- AppRoutingModule -->
<g id="node13" class="node">
<title>AppRoutingModule</title>
<polygon fill="#8dd3c7" stroke="black" points="2134.27,-122 2131.27,-126 2110.27,-126 2107.27,-122 2005.73,-122 2005.73,-86 2134.27,-86 2134.27,-122"/>
<text text-anchor="middle" x="2070" y="-99.8" font-family="Times,serif" font-size="14.00">AppRoutingModule</text>
</g>
<!-- AppRoutingModule&#45;&gt;AppModule -->
<g id="edge12" class="edge">
<title>AppRoutingModule&#45;&gt;AppModule</title>
<path fill="none" stroke="black" d="M2070,-122.09C2070,-145.13 2070,-182 2070,-182 2070,-182 1178.74,-182 1178.74,-182"/>
<polygon fill="black" stroke="black" points="1178.74,-178.5 1168.74,-182 1178.74,-185.5 1178.74,-178.5"/>
</g>
<!-- MaterialModule -->
<g id="node14" class="node">
<title>MaterialModule</title>
<polygon fill="#8dd3c7" stroke="black" points="1987.47,-122 1984.47,-126 1963.47,-126 1960.47,-122 1880.53,-122 1880.53,-86 1987.47,-86 1987.47,-122"/>
<text text-anchor="middle" x="1934" y="-99.8" font-family="Times,serif" font-size="14.00">MaterialModule</text>
</g>
<!-- MaterialModule&#45;&gt;AppModule -->
<g id="edge13" class="edge">
<title>MaterialModule&#45;&gt;AppModule</title>
<path fill="none" stroke="black" d="M1934,-122.04C1934,-143.66 1934,-177 1934,-177 1934,-177 1178.69,-177 1178.69,-177"/>
<polygon fill="black" stroke="black" points="1178.69,-173.5 1168.69,-177 1178.69,-180.5 1178.69,-173.5"/>
</g>
<!-- AuthService -->
<g id="node16" class="node">
<title>AuthService</title>
<ellipse fill="#fdb462" stroke="black" cx="1798" cy="-104" rx="59.11" ry="18"/>
<text text-anchor="middle" x="1798" y="-99.8" font-family="Times,serif" font-size="14.00">AuthService</text>
</g>
<!-- AuthService&#45;&gt;AppModule -->
<g id="edge15" class="edge">
<title>AuthService&#45;&gt;AppModule</title>
<path fill="none" stroke="black" d="M1798,-122.22C1798,-142.37 1798,-172 1798,-172 1798,-172 1178.72,-172 1178.72,-172"/>
<polygon fill="black" stroke="black" points="1178.72,-168.5 1168.72,-172 1178.72,-175.5 1178.72,-168.5"/>
</g>
</g>
</svg>
